<svg width="22" height="22" viewBox="0 0 22 22" fill="none" xmlns="http://www.w3.org/2000/svg">
<path d="M1 1H4.63636L7.07273 13.7524C7.15586 14.1909 7.38355 14.5847 7.71595 14.865C8.04835 15.1454 8.46427 15.2943 8.89091 15.2857H17.7273C18.1539 15.2943 18.5698 15.1454 18.9022 14.865C19.2346 14.5847 19.4623 14.1909 19.5455 13.7524L21 5.7619H5.54545M9.18182 20.0476C9.18182 20.5736 8.7748 21 8.27273 21C7.77065 21 7.36364 20.5736 7.36364 20.0476C7.36364 19.5216 7.77065 19.0952 8.27273 19.0952C8.7748 19.0952 9.18182 19.5216 9.18182 20.0476ZM19.1818 20.0476C19.1818 20.5736 18.7748 21 18.2727 21C17.7707 21 17.3636 20.5736 17.3636 20.0476C17.3636 19.5216 17.7707 19.0952 18.2727 19.0952C18.7748 19.0952 19.1818 19.5216 19.1818 20.0476Z" stroke="#449944" stroke-width="2" stroke-linecap="round" stroke-linejoin="round"/>
</svg>
